<?xml version="1.0" encoding="UTF-8"?>
<svg version="1.1" xmlns="http://www.w3.org/2000/svg" width="218" height="99">
<path d="M0 0 C0.73340103 0.00940613 1.46680206 0.01881226 2.22242737 0.02850342 C4.52867678 0.07065817 6.82518796 0.18349398 9.12890625 0.296875 C10.69587619 0.32995602 12.26294553 0.35863491 13.83007812 0.3828125 C25.094666 0.64904817 25.094666 0.64904817 28.69140625 3.046875 C29.35140625 2.386875 30.01140625 1.726875 30.69140625 1.046875 C33.23758714 0.85947579 35.67291298 0.79113858 38.21875 0.81640625 C38.96347061 0.81686447 39.70819122 0.81732269 40.47547913 0.8177948 C42.05162141 0.82081761 43.6277607 0.8287048 45.20385742 0.84106445 C47.61583047 0.85927627 50.02741862 0.86157443 52.43945312 0.86132812 C53.9700554 0.86624517 55.50065507 0.8720743 57.03125 0.87890625 C57.75320053 0.88001907 58.47515106 0.8811319 59.21897888 0.88227844 C62.31159843 0.91155109 64.7346328 1.06128385 67.69140625 2.046875 C68.35140625 1.716875 69.01140625 1.386875 69.69140625 1.046875 C72.20991461 0.94813919 74.7001221 0.90702043 77.21875 0.9140625 C77.96347061 0.91310577 78.70819122 0.91214905 79.47547913 0.91116333 C81.05160608 0.91048243 82.62773584 0.91233045 84.20385742 0.91650391 C86.6157869 0.92184594 89.02752952 0.9165598 91.43945312 0.91015625 C92.97005249 0.9108172 94.50065175 0.9120987 96.03125 0.9140625 C96.75320053 0.91203827 97.47515106 0.91001404 98.21897888 0.90792847 C101.31744883 0.92241887 103.72840213 1.05920696 106.69140625 2.046875 C107.35140625 1.716875 108.01140625 1.386875 108.69140625 1.046875 C111.1983409 0.96022979 113.67701814 0.93127136 116.18359375 0.94921875 C116.92594269 0.9506337 117.66829163 0.95204865 118.43313599 0.95350647 C120.81093346 0.95910955 123.18863726 0.9716481 125.56640625 0.984375 C127.16145696 0.98939088 128.75650916 0.99395364 130.3515625 0.99804688 C133.28371078 1.0062194 136.21582325 1.01696324 139.14794922 1.03100586 C143.49836209 1.0504889 147.8420485 1.02799881 152.19140625 0.94140625 C154.35806609 0.91352644 156.52473313 0.88620291 158.69140625 0.859375 C159.78453125 0.83423828 160.87765625 0.80910156 162.00390625 0.78320312 C163.05578125 0.77353516 164.10765625 0.76386719 165.19140625 0.75390625 C166.63 0.73034058 166.63 0.73034058 168.09765625 0.70629883 C171.36880946 1.13582243 172.58435164 1.46355994 174.69140625 4.046875 C175.25003476 7.13635139 175.15535597 10.1783614 175.08203125 13.30859375 C175.07637146 14.21438675 175.07071167 15.12017975 175.06488037 16.05342102 C175.04248241 18.94760911 174.99228017 21.8405609 174.94140625 24.734375 C174.92134565 26.69594567 174.90309411 28.65753573 174.88671875 30.61914062 C174.84260643 35.42886206 174.77355566 40.2376589 174.69140625 45.046875 C176.11972778 45.01339966 176.11972778 45.01339966 177.5769043 44.97924805 C180.69140625 45.046875 180.69140625 45.046875 182.5234375 46.12890625 C185.35771327 50.78318519 184.60830655 56.88717518 183.69140625 62.046875 C181.122619 66.01946661 177.92737548 68.92889038 173.69140625 71.046875 C171.1844716 71.13352021 168.70579436 71.16247864 166.19921875 71.14453125 C165.45686981 71.1431163 164.71452087 71.14170135 163.94967651 71.14024353 C161.57187904 71.13464045 159.19417524 71.1221019 156.81640625 71.109375 C155.22135554 71.10435912 153.62630334 71.09979636 152.03125 71.09570312 C149.09910172 71.0875306 146.16698925 71.07678676 143.23486328 71.06274414 C140.72039726 71.05148327 138.20589749 71.046875 135.69140625 71.046875 C96.69140625 71.046875 57.69140625 71.046875 18.69140625 71.046875 C16.77867281 71.06357449 14.86594014 71.08038266 12.95321655 71.09817505 C9.81747624 71.12480962 6.68171078 71.14111546 3.54589844 71.15673828 C1.88929737 71.16685144 0.23271436 71.18053886 -1.42382812 71.19775391 C-3.81514847 71.2219326 -6.2062363 71.23333587 -8.59765625 71.2421875 C-9.71172348 71.25767136 -9.71172348 71.25767136 -10.84829712 71.27346802 C-12.66996248 71.27386819 -14.49103313 71.16909708 -16.30859375 71.046875 C-18.91014169 68.44532706 -18.60060967 67.28283196 -18.69433594 63.65429688 C-18.72646179 62.52552124 -18.75858765 61.39674561 -18.79168701 60.23376465 C-18.88070878 55.04426381 -18.96367267 49.85511532 -19.00878906 44.66503906 C-19.03535436 41.93253866 -19.09080325 39.20306788 -19.17285156 36.47167969 C-19.29129672 32.52808952 -19.32621317 28.58593163 -19.35546875 24.640625 C-19.4008075 23.42983276 -19.44614624 22.21904053 -19.49285889 20.97155762 C-19.45915427 14.14798096 -18.45777532 10.3513195 -13.76245117 5.26269531 C-9.20269989 1.28623692 -6.00812169 -0.39901405 0 0 Z " fill="#550577" transform="translate(26.30859375,13.953125)"/>
<path d="M0 0 C11.22 0 22.44 0 34 0 C34 6.27 34 12.54 34 19 C29.38 19 24.76 19 20 19 C20 16.36 20 13.72 20 11 C18.02 11 16.04 11 14 11 C14 21.89 14 32.78 14 44 C15.98 44 17.96 44 20 44 C20 40.37 20 36.74 20 33 C18.68 33 17.36 33 16 33 C16 29.37 16 25.74 16 22 C21.94 22 27.88 22 34 22 C34 32.89 34 43.78 34 55 C22.78 55 11.56 55 0 55 C0 36.85 0 18.7 0 0 Z " fill="#F6F3F8" transform="translate(57,19)"/>
<path d="M0 0 C10.89 0 21.78 0 33 0 C33 6.27 33 12.54 33 19 C28.38 19 23.76 19 19 19 C19 16.36 19 13.72 19 11 C17.02 11 15.04 11 13 11 C13 21.89 13 32.78 13 44 C14.98 44 16.96 44 19 44 C19 40.37 19 36.74 19 33 C18.01 33 17.02 33 16 33 C16 29.37 16 25.74 16 22 C21.28 22 26.56 22 32 22 C32 32.89 32 43.78 32 55 C21.44 55 10.88 55 0 55 C0 36.85 0 18.7 0 0 Z " fill="#FBFAFC" transform="translate(19,19)"/>
<path d="M0 0 C10.89 0 21.78 0 33 0 C33 3.63 33 7.26 33 11 C26.73 11 20.46 11 14 11 C14 14.63 14 18.26 14 22 C19.28 22 24.56 22 30 22 C30 25.63 30 29.26 30 33 C24.72 33 19.44 33 14 33 C14 36.63 14 40.26 14 44 C20.27 44 26.54 44 33 44 C33 47.63 33 51.26 33 55 C22.11 55 11.22 55 0 55 C0 36.85 0 18.7 0 0 Z " fill="#F9F7FA" transform="translate(96,19)"/>
<path d="M0 0 C10.89 0 21.78 0 33 0 C33 13.49956699 33 13.49956699 29.60546875 18.90234375 C29.25744705 19.47279922 28.90942535 20.0432547 28.55085754 20.6309967 C27.45397625 22.41635469 26.32246954 24.17617293 25.1875 25.9375 C24.43960163 27.1397519 23.69414089 28.34352375 22.95117188 29.54882812 C21.58506477 31.75746473 20.203798 33.95312134 18.80932617 36.14428711 C17.16608559 38.73786222 15.57966716 41.3672214 14 44 C20.27 44 26.54 44 33 44 C33 47.63 33 51.26 33 55 C22.11 55 11.22 55 0 55 C0 41.50111359 0 41.50111359 2.6328125 37.3671875 C3.47199219 36.00400391 3.47199219 36.00400391 4.328125 34.61328125 C4.92109375 33.70964844 5.5140625 32.80601563 6.125 31.875 C6.69476563 30.96363281 7.26453125 30.05226563 7.8515625 29.11328125 C8.98615975 27.30050428 10.13084955 25.49400031 11.28613281 23.69433594 C13.94493759 19.51448274 16.4672513 15.25717334 19 11 C12.73 11 6.46 11 0 11 C0 7.37 0 3.74 0 0 Z " fill="#FAF8FB" transform="translate(135,19)"/>
<path d="M0 0 C7.59 0 15.18 0 23 0 C23 14.52 23 29.04 23 44 C26.3 44 29.6 44 33 44 C33 47.63 33 51.26 33 55 C22.11 55 11.22 55 0 55 C0 51.37 0 47.74 0 44 C3.3 44 6.6 44 10 44 C10 33.11 10 22.22 10 11 C6.7 11 3.4 11 0 11 C0 7.37 0 3.74 0 0 Z " fill="#FCFAFC" transform="translate(174,19)"/>
<path d="M0 0 C1.98 0 3.96 0 6 0 C6 2.64 6 5.28 6 8 C10.62 8 15.24 8 20 8 C20 20.21 20 32.42 20 45 C9.11 45 -1.78 45 -13 45 C-13 44.67 -13 44.34 -13 44 C-2.44 44 8.12 44 19 44 C19 33.11 19 22.22 19 11 C13.72 11 8.44 11 3 11 C3 14.63 3 18.26 3 22 C3.99 22 4.98 22 6 22 C6 25.63 6 29.26 6 33 C4.02 33 2.04 33 0 33 C0 22.11 0 11.22 0 0 Z " fill="#72308E" transform="translate(32,30)"/>
<path d="M0 0 C0.33 0 0.66 0 1 0 C1 3.63 1 7.26 1 11 C2.32 11 3.64 11 5 11 C5 14.63 5 18.26 5 22 C3.35 22 1.7 22 0 22 C0 14.74 0 7.48 0 0 Z " fill="#4F0072" transform="translate(33,41)"/>
</svg>
