<svg width="100%" height="100%" fill="none"  xmlns="http://www.w3.org/2000/svg">

<g transform="translate(0.000000,99.000000) scale(0.10000,-0.100000)"
fill="#530075" stroke="none">
<path d="M131 776 l-51 -55 0 -266 c0 -164 4 -274 10 -286 10 -18 23 -19 183
-19 121 0 177 4 185 12 9 9 15 9 24 0 17 -17 349 -17 366 0 9 9 15 9 24 0 17
-17 349 -17 366 0 9 9 15 9 24 0 17 -17 349 -17 366 0 9 9 15 9 24 0 8 -8 63
-12 181 -12 l170 0 48 49 c45 45 49 52 49 97 0 65 -20 94 -66 94 l-34 0 0 203
c0 252 10 237 -151 237 -76 0 -119 -4 -127 -12 -9 -9 -15 -9 -24 0 -16 16
-330 17 -360 1 -14 -8 -23 -8 -31 0 -16 16 -339 15 -355 -1 -10 -10 -17 -10
-32 0 -14 8 -72 12 -184 12 -134 0 -166 -3 -176 -15 -12 -14 -15 -14 -30 0
-13 12 -48 15 -182 15 l-165 0 -52 -54z m389 -71 l0 -95 -70 0 -70 0 0 40 c0
38 -2 40 -30 40 l-30 0 0 -165 0 -165 30 0 c30 0 30 1 30 55 0 42 -3 55 -15
55 -12 0 -15 13 -15 55 l0 56 83 -3 82 -3 3 -162 2 -163 -165 0 -165 0 0 275
0 275 165 0 165 0 0 -95z m388 3 l-3 -93 -67 -3 -68 -3 0 41 c0 38 -2 40 -30
40 l-30 0 0 -165 0 -165 30 0 c30 0 30 1 30 55 0 49 -2 55 -21 55 -18 0 -20 5
-17 53 l3 52 85 0 85 0 3 -162 2 -163 -170 0 -170 0 0 275 0 275 170 0 171 0
-3 -92z m382 37 l0 -55 -95 0 -95 0 0 -55 0 -55 80 0 80 0 0 -55 0 -55 -80 0
-80 0 0 -55 0 -55 95 0 95 0 0 -55 0 -55 -165 0 -165 0 0 275 0 275 165 0 165
0 0 -55z m390 0 c0 -52 -6 -66 -95 -218 l-95 -162 95 -3 95 -3 0 -54 0 -55
-165 0 -165 0 0 54 c0 50 7 65 95 216 52 89 95 164 95 166 0 2 -43 4 -95 4
l-95 0 0 55 0 55 165 0 165 0 0 -55z m290 -165 l0 -220 50 0 50 0 0 -55 0 -55
-165 0 -165 0 0 55 0 55 50 0 50 0 0 165 0 165 -50 0 -50 0 0 55 0 55 115 0
115 0 0 -220z"/>
</g>
</svg>
